<svg width="24" height="24" viewBox="0 0 24 24" fill="none" xmlns="http://www.w3.org/2000/svg">
<path d="M8.03886 12.7209C8.17937 12.6621 8.33047 12.6316 8.48323 12.631C8.636 12.6305 8.78732 12.66 8.92826 12.7177C9.0692 12.7755 9.19689 12.8604 9.30379 12.9674C9.41069 13.0743 9.49463 13.2012 9.55064 13.3405C9.60665 13.4799 9.6336 13.6288 9.62989 13.7785C9.62618 13.9282 9.59189 14.0756 9.52905 14.2121C9.46621 14.3486 9.37609 14.4713 9.26402 14.5731C9.15195 14.6749 9.02021 14.7536 8.87657 14.8046C8.11262 15.0996 7.45695 15.6132 6.99486 16.2786C6.53278 16.9439 6.28568 17.7302 6.28571 18.535V18.6392C6.28571 18.9363 6.40612 19.2213 6.62045 19.4314C6.83478 19.6415 7.12547 19.7595 7.42857 19.7595H16.5714C16.8745 19.7595 17.1652 19.6415 17.3796 19.4314C17.5939 19.2213 17.7143 18.9363 17.7143 18.6392C17.7144 17.8085 17.457 16.9974 16.9761 16.3134C16.4953 15.6293 15.8137 15.1047 15.0217 14.8091C14.8772 14.7599 14.7442 14.6828 14.6306 14.5823C14.5171 14.4818 14.4253 14.36 14.3606 14.2241C14.296 14.0882 14.2598 13.941 14.2543 13.7911C14.2488 13.6413 14.274 13.4918 14.3285 13.3517C14.383 13.2116 14.4656 13.0836 14.5715 12.9754C14.6774 12.8671 14.8043 12.7808 14.9449 12.7216C15.0854 12.6623 15.2366 12.6314 15.3896 12.6305C15.5426 12.6296 15.6942 12.6588 15.8354 12.7164C17.0601 13.1737 18.1142 13.9849 18.8579 15.0426C19.6016 16.1003 19.9999 17.3546 20 18.6392C20 19.5306 19.6388 20.3854 18.9958 21.0156C18.3528 21.6459 17.4807 22 16.5714 22H7.42857C6.51926 22 5.64719 21.6459 5.00421 21.0156C4.36122 20.3854 4 19.5306 4 18.6392V18.535C4.00016 17.2805 4.38546 16.0551 5.10578 15.0181C5.82611 13.9812 6.84812 13.1807 8.03886 12.7209ZM12 2C13.2124 2 14.3752 2.47211 15.2325 3.31247C16.0898 4.15282 16.5714 5.29259 16.5714 6.48104V8.16143C16.5714 9.34987 16.0898 10.4896 15.2325 11.33C14.3752 12.1704 13.2124 12.6425 12 12.6425C10.7876 12.6425 9.62482 12.1704 8.76751 11.33C7.9102 10.4896 7.42857 9.34987 7.42857 8.16143V6.48104C7.42857 5.29259 7.9102 4.15282 8.76751 3.31247C9.62482 2.47211 10.7876 2 12 2ZM12 4.24052C11.3938 4.24052 10.8124 4.47657 10.3838 4.89675C9.9551 5.31693 9.71429 5.88682 9.71429 6.48104V8.16143C9.71429 8.75565 9.9551 9.32554 10.3838 9.74572C10.8124 10.1659 11.3938 10.4019 12 10.4019C12.6062 10.4019 13.1876 10.1659 13.6162 9.74572C14.0449 9.32554 14.2857 8.75565 14.2857 8.16143V6.48104C14.2857 5.88682 14.0449 5.31693 13.6162 4.89675C13.1876 4.47657 12.6062 4.24052 12 4.24052Z" fill="#FF6E40"/>
</svg>
