<svg
    xmlns="http://www.w3.org/2000/svg"
    width="100%"
    height="100%"
    viewBox="0 0 24 24"
>
    <ng-container [ngSwitch]="iconId">
        <path *ngSwitchCase="'search'"
            d="M10.5 16.5C11.2879 16.5 12.0682 16.3448 12.7961 16.0433C13.5241 15.7417 14.1855 15.2998 14.7427 14.7426C15.2998 14.1855 15.7418 13.5241 16.0433 12.7961C16.3448 12.0681 16.5 11.2879 16.5 10.5C16.5 9.71207 16.3448 8.93185 16.0433 8.2039C15.7418 7.47595 15.2998 6.81451 14.7427 6.25736C14.1855 5.70021 13.5241 5.25825 12.7961 4.95672C12.0682 4.65519 11.2879 4.5 10.5 4.5C8.90872 4.5 7.38259 5.13214 6.25737 6.25736C5.13216 7.38258 4.50002 8.9087 4.50002 10.5C4.50002 12.0913 5.13216 13.6174 6.25737 14.7426C7.38259 15.8679 8.90872 16.5 10.5 16.5ZM16.82 15.406L20.4 18.986C20.4955 19.0783 20.5716 19.1887 20.6239 19.3108C20.6762 19.4328 20.7037 19.564 20.7048 19.6968C20.7058 19.8296 20.6804 19.9613 20.63 20.0841C20.5797 20.207 20.5053 20.3186 20.4114 20.4124C20.3174 20.5062 20.2057 20.5804 20.0828 20.6306C19.9599 20.6808 19.8282 20.706 19.6954 20.7047C19.5626 20.7035 19.4314 20.6758 19.3095 20.6233C19.1875 20.5708 19.0772 20.4946 18.985 20.399L15.405 16.819C13.7975 18.0668 11.7748 18.6552 9.74877 18.4642C7.72273 18.2732 5.84562 17.3173 4.49957 15.7911C3.15351 14.2648 2.4397 12.2829 2.50344 10.2489C2.56718 8.2149 3.40368 6.28162 4.84266 4.84265C6.28164 3.40367 8.21492 2.56717 10.2489 2.50343C12.283 2.43968 14.2648 3.1535 15.7911 4.49955C17.3173 5.8456 18.2732 7.72271 18.4642 9.74875C18.6552 11.7748 18.0669 13.7975 16.819 15.405L16.82 15.406Z"
        />
        <path *ngSwitchCase="'shevron'"
            d="M12.071 13.314L17.021 8.364C17.1132 8.26849 17.2236 8.19231 17.3456 8.1399C17.4676 8.08749 17.5988 8.05991 17.7316 8.05875C17.8644 8.0576 17.9961 8.0829 18.119 8.13318C18.2418 8.18346 18.3535 8.25772 18.4474 8.35161C18.5413 8.4455 18.6155 8.55715 18.6658 8.68005C18.7161 8.80295 18.7414 8.93463 18.7402 9.06741C18.7391 9.20018 18.7115 9.3314 18.6591 9.45341C18.6067 9.57541 18.5305 9.68576 18.435 9.778L12.778 15.435C12.5905 15.6225 12.3362 15.7278 12.071 15.7278C11.8058 15.7278 11.5515 15.6225 11.364 15.435L5.707 9.778C5.61149 9.68576 5.53531 9.57541 5.4829 9.45341C5.43049 9.3314 5.4029 9.20018 5.40175 9.06741C5.40059 8.93463 5.4259 8.80295 5.47618 8.68005C5.52646 8.55715 5.60071 8.4455 5.6946 8.35161C5.7885 8.25772 5.90015 8.18346 6.02304 8.13318C6.14594 8.0829 6.27762 8.0576 6.4104 8.05875C6.54318 8.05991 6.6744 8.08749 6.7964 8.1399C6.91841 8.19231 7.02875 8.26849 7.121 8.364L12.071 13.314Z"
        />
        <path *ngSwitchCase="'map-marker'"
            d="M17 9C17 7.67392 16.4732 6.40215 15.5355 5.46447C14.5979 4.52678 13.3261 4 12 4C10.6739 4 9.40215 4.52678 8.46447 5.46447C7.52678 6.40215 7 7.67392 7 9C7 10.726 8.66 14.031 12 18.653C15.34 14.031 17 10.726 17 9ZM12 22C7.333 15.91 5 11.577 5 9C5 7.14348 5.7375 5.36301 7.05025 4.05025C8.36301 2.7375 10.1435 2 12 2C13.8565 2 15.637 2.7375 16.9497 4.05025C18.2625 5.36301 19 7.14348 19 9C19 11.577 16.667 15.91 12 22ZM12 13C10.9391 13 9.92172 12.5786 9.17157 11.8284C8.42143 11.0783 8 10.0609 8 9C8 7.93913 8.42143 6.92172 9.17157 6.17157C9.92172 5.42143 10.9391 5 12 5C13.0609 5 14.0783 5.42143 14.8284 6.17157C15.5786 6.92172 16 7.93913 16 9C16 10.0609 15.5786 11.0783 14.8284 11.8284C14.0783 12.5786 13.0609 13 12 13ZM12 11C12.5304 11 13.0391 10.7893 13.4142 10.4142C13.7893 10.0391 14 9.53043 14 9C14 8.46957 13.7893 7.96086 13.4142 7.58579C13.0391 7.21071 12.5304 7 12 7C11.4696 7 10.9609 7.21071 10.5858 7.58579C10.2107 7.96086 10 8.46957 10 9C10 9.53043 10.2107 10.0391 10.5858 10.4142C10.9609 10.7893 11.4696 11 12 11Z"
        />
        <path *ngSwitchCase="'calendar'"
            d="M20 10V8C20 7.73478 19.8946 7.48043 19.7071 7.29289C19.5196 7.10536 19.2652 7 19 7H18V8C18 8.26522 17.8946 8.51957 17.7071 8.70711C17.5196 8.89464 17.2652 9 17 9C16.7348 9 16.4804 8.89464 16.2929 8.70711C16.1054 8.51957 16 8.26522 16 8V7H8V8C8 8.26522 7.89464 8.51957 7.70711 8.70711C7.51957 8.89464 7.26522 9 7 9C6.73478 9 6.48043 8.89464 6.29289 8.70711C6.10536 8.51957 6 8.26522 6 8V7H5C4.73478 7 4.48043 7.10536 4.29289 7.29289C4.10536 7.48043 4 7.73478 4 8V10H20ZM20 12H4V18C4 18.2652 4.10536 18.5196 4.29289 18.7071C4.48043 18.8946 4.73478 19 5 19H19C19.2652 19 19.5196 18.8946 19.7071 18.7071C19.8946 18.5196 20 18.2652 20 18V12ZM18 5H19C19.7956 5 20.5587 5.31607 21.1213 5.87868C21.6839 6.44129 22 7.20435 22 8V18C22 18.7956 21.6839 19.5587 21.1213 20.1213C20.5587 20.6839 19.7956 21 19 21H5C4.20435 21 3.44129 20.6839 2.87868 20.1213C2.31607 19.5587 2 18.7956 2 18V8C2 7.20435 2.31607 6.44129 2.87868 5.87868C3.44129 5.31607 4.20435 5 5 5H6V4C6 3.73478 6.10536 3.48043 6.29289 3.29289C6.48043 3.10536 6.73478 3 7 3C7.26522 3 7.51957 3.10536 7.70711 3.29289C7.89464 3.48043 8 3.73478 8 4V5H16V4C16 3.73478 16.1054 3.48043 16.2929 3.29289C16.4804 3.10536 16.7348 3 17 3C17.2652 3 17.5196 3.10536 17.7071 3.29289C17.8946 3.48043 18 3.73478 18 4V5Z"
        />
        <path *ngSwitchCase="'clock'"
            d="M13 11H17C17.2652 11 17.5196 11.1054 17.7071 11.2929C17.8946 11.4804 18 11.7348 18 12C18 12.2652 17.8946 12.5196 17.7071 12.7071C17.5196 12.8946 17.2652 13 17 13H12C11.7348 13 11.4804 12.8946 11.2929 12.7071C11.1054 12.5196 11 12.2652 11 12V6C11 5.73478 11.1054 5.48043 11.2929 5.29289C11.4804 5.10536 11.7348 5 12 5C12.2652 5 12.5196 5.10536 12.7071 5.29289C12.8946 5.48043 13 5.73478 13 6V11ZM12 22C6.477 22 2 17.523 2 12C2 6.477 6.477 2 12 2C17.523 2 22 6.477 22 12C22 17.523 17.523 22 12 22ZM12 20C14.1217 20 16.1566 19.1571 17.6569 17.6569C19.1571 16.1566 20 14.1217 20 12C20 9.87827 19.1571 7.84344 17.6569 6.34315C16.1566 4.84285 14.1217 4 12 4C9.87827 4 7.84344 4.84285 6.34315 6.34315C4.84285 7.84344 4 9.87827 4 12C4 14.1217 4.84285 16.1566 6.34315 17.6569C7.84344 19.1571 9.87827 20 12 20Z"
        />
        <path *ngSwitchCase="'user'"
            d="M8.03886 12.7209C8.17937 12.6621 8.33047 12.6316 8.48323 12.631C8.636 12.6305 8.78732 12.66 8.92826 12.7177C9.0692 12.7755 9.19689 12.8604 9.30379 12.9674C9.41069 13.0743 9.49463 13.2012 9.55064 13.3405C9.60665 13.4799 9.6336 13.6288 9.62989 13.7785C9.62618 13.9282 9.59189 14.0756 9.52905 14.2121C9.46621 14.3486 9.37609 14.4713 9.26402 14.5731C9.15195 14.6749 9.02021 14.7536 8.87657 14.8046C8.11262 15.0996 7.45695 15.6132 6.99486 16.2786C6.53278 16.9439 6.28568 17.7302 6.28571 18.535V18.6392C6.28571 18.9363 6.40612 19.2213 6.62045 19.4314C6.83478 19.6415 7.12547 19.7595 7.42857 19.7595H16.5714C16.8745 19.7595 17.1652 19.6415 17.3796 19.4314C17.5939 19.2213 17.7143 18.9363 17.7143 18.6392C17.7144 17.8085 17.457 16.9974 16.9761 16.3134C16.4953 15.6293 15.8137 15.1047 15.0217 14.8091C14.8772 14.7599 14.7442 14.6828 14.6306 14.5823C14.5171 14.4818 14.4253 14.36 14.3606 14.2241C14.296 14.0882 14.2598 13.941 14.2543 13.7911C14.2488 13.6413 14.274 13.4918 14.3285 13.3517C14.383 13.2116 14.4656 13.0836 14.5715 12.9754C14.6774 12.8671 14.8043 12.7808 14.9449 12.7216C15.0854 12.6623 15.2366 12.6314 15.3896 12.6305C15.5426 12.6296 15.6942 12.6588 15.8354 12.7164C17.0601 13.1737 18.1142 13.9849 18.8579 15.0426C19.6016 16.1003 19.9999 17.3546 20 18.6392C20 19.5306 19.6388 20.3854 18.9958 21.0156C18.3528 21.6459 17.4807 22 16.5714 22H7.42857C6.51926 22 5.64719 21.6459 5.00421 21.0156C4.36122 20.3854 4 19.5306 4 18.6392V18.535C4.00016 17.2805 4.38546 16.0551 5.10578 15.0181C5.82611 13.9812 6.84812 13.1807 8.03886 12.7209ZM12 2C13.2124 2 14.3752 2.47211 15.2325 3.31247C16.0898 4.15282 16.5714 5.29259 16.5714 6.48104V8.16143C16.5714 9.34987 16.0898 10.4896 15.2325 11.33C14.3752 12.1704 13.2124 12.6425 12 12.6425C10.7876 12.6425 9.62482 12.1704 8.76751 11.33C7.9102 10.4896 7.42857 9.34987 7.42857 8.16143V6.48104C7.42857 5.29259 7.9102 4.15282 8.76751 3.31247C9.62482 2.47211 10.7876 2 12 2ZM12 4.24052C11.3938 4.24052 10.8124 4.47657 10.3838 4.89675C9.9551 5.31693 9.71429 5.88682 9.71429 6.48104V8.16143C9.71429 8.75565 9.9551 9.32554 10.3838 9.74572C10.8124 10.1659 11.3938 10.4019 12 10.4019C12.6062 10.4019 13.1876 10.1659 13.6162 9.74572C14.0449 9.32554 14.2857 8.75565 14.2857 8.16143V6.48104C14.2857 5.88682 14.0449 5.31693 13.6162 4.89675C13.1876 4.47657 12.6062 4.24052 12 4.24052Z"
        />
        <path *ngSwitchCase="'move'"
            d="M19.299 10.957L18.178 9.83601C17.9904 9.6485 17.8849 9.39413 17.8848 9.12886C17.8847 8.86359 17.99 8.60915 18.1775 8.42151C18.365 8.23387 18.6194 8.1284 18.8846 8.1283C19.1499 8.12821 19.4044 8.2335 19.592 8.42101L22.42 11.25C22.6075 11.4375 22.7128 11.6918 22.7128 11.957C22.7128 12.2222 22.6075 12.4765 22.42 12.664L19.592 15.492C19.4034 15.6742 19.1508 15.775 18.8886 15.7727C18.6264 15.7704 18.3756 15.6652 18.1902 15.4798C18.0048 15.2944 17.8996 15.0436 17.8973 14.7814C17.895 14.5192 17.9958 14.2666 18.178 14.078L19.299 12.957H12.814V19.442L13.935 18.321C14.1236 18.1388 14.3762 18.0381 14.6384 18.0403C14.9006 18.0426 15.1514 18.1478 15.3368 18.3332C15.5222 18.5186 15.6274 18.7694 15.6297 19.0316C15.632 19.2938 15.5312 19.5464 15.349 19.735L12.521 22.564C12.3335 22.7515 12.0792 22.8568 11.814 22.8568C11.5488 22.8568 11.2945 22.7515 11.107 22.564L8.278 19.735C8.09584 19.5464 7.99505 19.2938 7.99733 19.0316C7.99961 18.7694 8.10477 18.5186 8.29018 18.3332C8.47559 18.1478 8.7264 18.0426 8.9886 18.0403C9.2508 18.0381 9.5034 18.1388 9.692 18.321L10.814 19.442V12.957H4.328L5.45 14.078C5.63216 14.2666 5.73295 14.5192 5.73068 14.7814C5.7284 15.0436 5.62323 15.2944 5.43782 15.4798C5.25241 15.6652 5.0016 15.7704 4.7394 15.7727C4.47721 15.775 4.2246 15.6742 4.036 15.492L1.207 12.664C1.01953 12.4765 0.914215 12.2222 0.914215 11.957C0.914215 11.6918 1.01953 11.4375 1.207 11.25L4.036 8.42001C4.22377 8.2325 4.47834 8.12726 4.74371 8.12745C5.00907 8.12764 5.26349 8.23323 5.451 8.42101C5.63851 8.60878 5.74374 8.86335 5.74356 9.12871C5.74337 9.39408 5.63777 9.6485 5.45 9.83601L4.328 10.956H10.814V4.47301L9.692 5.59301C9.5034 5.77517 9.2508 5.87596 8.9886 5.87368C8.7264 5.8714 8.47559 5.76623 8.29018 5.58083C8.10477 5.39542 7.99961 5.1446 7.99733 4.88241C7.99505 4.62021 8.09584 4.36761 8.278 4.17901L11.107 1.35001C11.2945 1.16254 11.5488 1.05722 11.814 1.05722C12.0792 1.05722 12.3335 1.16254 12.521 1.35001L15.349 4.17901C15.4445 4.27125 15.5207 4.3816 15.5731 4.5036C15.6255 4.62561 15.6531 4.75683 15.6543 4.88961C15.6554 5.02239 15.6301 5.15407 15.5798 5.27696C15.5295 5.39986 15.4553 5.51151 15.3614 5.6054C15.2675 5.69929 15.1559 5.77355 15.033 5.82383C14.9101 5.87411 14.7784 5.89941 14.6456 5.89826C14.5128 5.8971 14.3816 5.86952 14.2596 5.81711C14.1376 5.7647 14.0272 5.68852 13.935 5.59301L12.814 4.47201V10.957H19.299Z"
        />
        <path *ngSwitchCase="'copy'"
            d="M9 17H5C4.46957 17 3.96086 16.7893 3.58579 16.4142C3.21071 16.0391 3 15.5304 3 15V4C3 3.46957 3.21071 2.96086 3.58579 2.58579C3.96086 2.21071 4.46957 2 5 2H13C13.5304 2 14.0391 2.21071 14.4142 2.58579C14.7893 2.96086 15 3.46957 15 4V7H19C20.1046 7 21 7.89543 21 9V20C21 20.5304 20.7893 21.0391 20.4142 21.4142C20.0391 21.7893 19.5304 22 19 22H11C10.4696 22 9.96086 21.7893 9.58579 21.4142C9.21071 21.0391 9 20.5304 9 20V17ZM9 15V9C9 8.46957 9.21071 7.96086 9.58579 7.58579C9.96086 7.21071 10.4696 7 11 7H13V4H5V15H9ZM11 9V20H19V9H11Z"
        />
        <path *ngSwitchCase="'redo'"
            d="M20.347 9.24L21.194 7.974C21.2668 7.86614 21.3603 7.7738 21.469 7.70231C21.5777 7.63082 21.6996 7.58161 21.8274 7.55752C21.9553 7.53343 22.0867 7.53495 22.214 7.56198C22.3413 7.58901 22.4619 7.64102 22.569 7.715C23.025 8.025 23.149 8.645 22.846 9.098L20.65 12.38C20.5772 12.4879 20.4837 12.5802 20.375 12.6517C20.2663 12.7232 20.1444 12.7724 20.0166 12.7965C19.8887 12.8206 19.7573 12.8191 19.63 12.792C19.5027 12.765 19.3821 12.713 19.275 12.639L15.97 10.393C15.7511 10.2455 15.5993 10.0177 15.5474 9.75894C15.4956 9.50018 15.5479 9.23142 15.693 9.011C15.7657 8.90306 15.8591 8.81063 15.9678 8.73904C16.0765 8.66746 16.1983 8.61815 16.3262 8.59397C16.4541 8.56979 16.5855 8.57121 16.7128 8.59817C16.8402 8.62512 16.9609 8.67707 17.068 8.751L18.412 9.666C17.428 6.386 14.42 4 10.863 4C6.506 4 2.973 7.582 2.973 12C2.973 16.418 6.506 20 10.863 20C11.408 20 11.85 20.448 11.85 21C11.85 21.552 11.408 22 10.863 22C5.416 22 1 17.523 1 12C1 6.477 5.416 2 10.863 2C15.367 2 19.165 5.06 20.347 9.24Z"
        />
        <path *ngSwitchCase="'trash'"
            d="M9 4V3C9 2.73478 9.10536 2.48043 9.29289 2.29289C9.48043 2.10536 9.73478 2 10 2H14C14.2652 2 14.5196 2.10536 14.7071 2.29289C14.8946 2.48043 15 2.73478 15 3V4H19C19.5304 4 20.0391 4.21071 20.4142 4.58579C20.7893 4.96086 21 5.46957 21 6V7C21 7.53043 20.7893 8.03914 20.4142 8.41421C20.0391 8.78929 19.5304 9 19 9H18.867L18.187 19.2C18.1363 19.9593 17.7989 20.6709 17.2432 21.1908C16.6875 21.7107 15.955 21.9999 15.194 22H8.826C8.06567 22 7.33372 21.7113 6.77811 21.1922C6.2225 20.6732 5.8847 19.9626 5.833 19.204L5.137 9H5C4.46957 9 3.96086 8.78929 3.58579 8.41421C3.21071 8.03914 3 7.53043 3 7V6C3 5.46957 3.21071 4.96086 3.58579 4.58579C3.96086 4.21071 4.46957 4 5 4H9ZM19 6H5V7H19V6ZM7.141 9L7.828 19.068C7.84524 19.3209 7.95789 19.5578 8.14316 19.7309C8.32843 19.9039 8.5725 20.0001 8.826 20H15.194C15.4478 20 15.6922 19.9036 15.8775 19.7301C16.0628 19.5567 16.1752 19.3193 16.192 19.066L16.862 9H7.142H7.141ZM10 10C10.2652 10 10.5196 10.1054 10.7071 10.2929C10.8946 10.4804 11 10.7348 11 11V18C11 18.2652 10.8946 18.5196 10.7071 18.7071C10.5196 18.8946 10.2652 19 10 19C9.73478 19 9.48043 18.8946 9.29289 18.7071C9.10536 18.5196 9 18.2652 9 18V11C9 10.7348 9.10536 10.4804 9.29289 10.2929C9.48043 10.1054 9.73478 10 10 10ZM14 10C14.2652 10 14.5196 10.1054 14.7071 10.2929C14.8946 10.4804 15 10.7348 15 11V18C15 18.2652 14.8946 18.5196 14.7071 18.7071C14.5196 18.8946 14.2652 19 14 19C13.7348 19 13.4804 18.8946 13.2929 18.7071C13.1054 18.5196 13 18.2652 13 18V11C13 10.7348 13.1054 10.4804 13.2929 10.2929C13.4804 10.1054 13.7348 10 14 10Z"
        />
    </ng-container>
    
</svg>