<svg
    xmlns="http://www.w3.org/2000/svg"
    width="24"
    height="24"
    viewBox="0 0 24 24"
>
    <ng-container [ngSwitch]="iconId">
        <path *ngSwitchCase="'search'"
            d="M10.5 16.5C11.2879 16.5 12.0682 16.3448 12.7961 16.0433C13.5241 15.7417 14.1855 15.2998 14.7427 14.7426C15.2998 14.1855 15.7418 13.5241 16.0433 12.7961C16.3448 12.0681 16.5 11.2879 16.5 10.5C16.5 9.71207 16.3448 8.93185 16.0433 8.2039C15.7418 7.47595 15.2998 6.81451 14.7427 6.25736C14.1855 5.70021 13.5241 5.25825 12.7961 4.95672C12.0682 4.65519 11.2879 4.5 10.5 4.5C8.90872 4.5 7.38259 5.13214 6.25737 6.25736C5.13216 7.38258 4.50002 8.9087 4.50002 10.5C4.50002 12.0913 5.13216 13.6174 6.25737 14.7426C7.38259 15.8679 8.90872 16.5 10.5 16.5ZM16.82 15.406L20.4 18.986C20.4955 19.0783 20.5716 19.1887 20.6239 19.3108C20.6762 19.4328 20.7037 19.564 20.7048 19.6968C20.7058 19.8296 20.6804 19.9613 20.63 20.0841C20.5797 20.207 20.5053 20.3186 20.4114 20.4124C20.3174 20.5062 20.2057 20.5804 20.0828 20.6306C19.9599 20.6808 19.8282 20.706 19.6954 20.7047C19.5626 20.7035 19.4314 20.6758 19.3095 20.6233C19.1875 20.5708 19.0772 20.4946 18.985 20.399L15.405 16.819C13.7975 18.0668 11.7748 18.6552 9.74877 18.4642C7.72273 18.2732 5.84562 17.3173 4.49957 15.7911C3.15351 14.2648 2.4397 12.2829 2.50344 10.2489C2.56718 8.2149 3.40368 6.28162 4.84266 4.84265C6.28164 3.40367 8.21492 2.56717 10.2489 2.50343C12.283 2.43968 14.2648 3.1535 15.7911 4.49955C17.3173 5.8456 18.2732 7.72271 18.4642 9.74875C18.6552 11.7748 18.0669 13.7975 16.819 15.405L16.82 15.406Z"
        />
        <path *ngSwitchCase="'shevron'"
            d="M12.071 13.314L17.021 8.364C17.1132 8.26849 17.2236 8.19231 17.3456 8.1399C17.4676 8.08749 17.5988 8.05991 17.7316 8.05875C17.8644 8.0576 17.9961 8.0829 18.119 8.13318C18.2418 8.18346 18.3535 8.25772 18.4474 8.35161C18.5413 8.4455 18.6155 8.55715 18.6658 8.68005C18.7161 8.80295 18.7414 8.93463 18.7402 9.06741C18.7391 9.20018 18.7115 9.3314 18.6591 9.45341C18.6067 9.57541 18.5305 9.68576 18.435 9.778L12.778 15.435C12.5905 15.6225 12.3362 15.7278 12.071 15.7278C11.8058 15.7278 11.5515 15.6225 11.364 15.435L5.707 9.778C5.61149 9.68576 5.53531 9.57541 5.4829 9.45341C5.43049 9.3314 5.4029 9.20018 5.40175 9.06741C5.40059 8.93463 5.4259 8.80295 5.47618 8.68005C5.52646 8.55715 5.60071 8.4455 5.6946 8.35161C5.7885 8.25772 5.90015 8.18346 6.02304 8.13318C6.14594 8.0829 6.27762 8.0576 6.4104 8.05875C6.54318 8.05991 6.6744 8.08749 6.7964 8.1399C6.91841 8.19231 7.02875 8.26849 7.121 8.364L12.071 13.314Z"
        />
        <path *ngSwitchCase="'map-marker'"
            d="M17 9C17 7.67392 16.4732 6.40215 15.5355 5.46447C14.5979 4.52678 13.3261 4 12 4C10.6739 4 9.40215 4.52678 8.46447 5.46447C7.52678 6.40215 7 7.67392 7 9C7 10.726 8.66 14.031 12 18.653C15.34 14.031 17 10.726 17 9ZM12 22C7.333 15.91 5 11.577 5 9C5 7.14348 5.7375 5.36301 7.05025 4.05025C8.36301 2.7375 10.1435 2 12 2C13.8565 2 15.637 2.7375 16.9497 4.05025C18.2625 5.36301 19 7.14348 19 9C19 11.577 16.667 15.91 12 22ZM12 13C10.9391 13 9.92172 12.5786 9.17157 11.8284C8.42143 11.0783 8 10.0609 8 9C8 7.93913 8.42143 6.92172 9.17157 6.17157C9.92172 5.42143 10.9391 5 12 5C13.0609 5 14.0783 5.42143 14.8284 6.17157C15.5786 6.92172 16 7.93913 16 9C16 10.0609 15.5786 11.0783 14.8284 11.8284C14.0783 12.5786 13.0609 13 12 13ZM12 11C12.5304 11 13.0391 10.7893 13.4142 10.4142C13.7893 10.0391 14 9.53043 14 9C14 8.46957 13.7893 7.96086 13.4142 7.58579C13.0391 7.21071 12.5304 7 12 7C11.4696 7 10.9609 7.21071 10.5858 7.58579C10.2107 7.96086 10 8.46957 10 9C10 9.53043 10.2107 10.0391 10.5858 10.4142C10.9609 10.7893 11.4696 11 12 11Z"
        />
        <path *ngSwitchCase="'calendar'"
            d="M20 10V8C20 7.73478 19.8946 7.48043 19.7071 7.29289C19.5196 7.10536 19.2652 7 19 7H18V8C18 8.26522 17.8946 8.51957 17.7071 8.70711C17.5196 8.89464 17.2652 9 17 9C16.7348 9 16.4804 8.89464 16.2929 8.70711C16.1054 8.51957 16 8.26522 16 8V7H8V8C8 8.26522 7.89464 8.51957 7.70711 8.70711C7.51957 8.89464 7.26522 9 7 9C6.73478 9 6.48043 8.89464 6.29289 8.70711C6.10536 8.51957 6 8.26522 6 8V7H5C4.73478 7 4.48043 7.10536 4.29289 7.29289C4.10536 7.48043 4 7.73478 4 8V10H20ZM20 12H4V18C4 18.2652 4.10536 18.5196 4.29289 18.7071C4.48043 18.8946 4.73478 19 5 19H19C19.2652 19 19.5196 18.8946 19.7071 18.7071C19.8946 18.5196 20 18.2652 20 18V12ZM18 5H19C19.7956 5 20.5587 5.31607 21.1213 5.87868C21.6839 6.44129 22 7.20435 22 8V18C22 18.7956 21.6839 19.5587 21.1213 20.1213C20.5587 20.6839 19.7956 21 19 21H5C4.20435 21 3.44129 20.6839 2.87868 20.1213C2.31607 19.5587 2 18.7956 2 18V8C2 7.20435 2.31607 6.44129 2.87868 5.87868C3.44129 5.31607 4.20435 5 5 5H6V4C6 3.73478 6.10536 3.48043 6.29289 3.29289C6.48043 3.10536 6.73478 3 7 3C7.26522 3 7.51957 3.10536 7.70711 3.29289C7.89464 3.48043 8 3.73478 8 4V5H16V4C16 3.73478 16.1054 3.48043 16.2929 3.29289C16.4804 3.10536 16.7348 3 17 3C17.2652 3 17.5196 3.10536 17.7071 3.29289C17.8946 3.48043 18 3.73478 18 4V5Z"
        />
        <path *ngSwitchCase="'clock'"
            d="M13 11H17C17.2652 11 17.5196 11.1054 17.7071 11.2929C17.8946 11.4804 18 11.7348 18 12C18 12.2652 17.8946 12.5196 17.7071 12.7071C17.5196 12.8946 17.2652 13 17 13H12C11.7348 13 11.4804 12.8946 11.2929 12.7071C11.1054 12.5196 11 12.2652 11 12V6C11 5.73478 11.1054 5.48043 11.2929 5.29289C11.4804 5.10536 11.7348 5 12 5C12.2652 5 12.5196 5.10536 12.7071 5.29289C12.8946 5.48043 13 5.73478 13 6V11ZM12 22C6.477 22 2 17.523 2 12C2 6.477 6.477 2 12 2C17.523 2 22 6.477 22 12C22 17.523 17.523 22 12 22ZM12 20C14.1217 20 16.1566 19.1571 17.6569 17.6569C19.1571 16.1566 20 14.1217 20 12C20 9.87827 19.1571 7.84344 17.6569 6.34315C16.1566 4.84285 14.1217 4 12 4C9.87827 4 7.84344 4.84285 6.34315 6.34315C4.84285 7.84344 4 9.87827 4 12C4 14.1217 4.84285 16.1566 6.34315 17.6569C7.84344 19.1571 9.87827 20 12 20Z"
        />
        <path *ngSwitchCase="'user'"
            d="M8.03886 12.7209C8.17937 12.6621 8.33047 12.6316 8.48323 12.631C8.636 12.6305 8.78732 12.66 8.92826 12.7177C9.0692 12.7755 9.19689 12.8604 9.30379 12.9674C9.41069 13.0743 9.49463 13.2012 9.55064 13.3405C9.60665 13.4799 9.6336 13.6288 9.62989 13.7785C9.62618 13.9282 9.59189 14.0756 9.52905 14.2121C9.46621 14.3486 9.37609 14.4713 9.26402 14.5731C9.15195 14.6749 9.02021 14.7536 8.87657 14.8046C8.11262 15.0996 7.45695 15.6132 6.99486 16.2786C6.53278 16.9439 6.28568 17.7302 6.28571 18.535V18.6392C6.28571 18.9363 6.40612 19.2213 6.62045 19.4314C6.83478 19.6415 7.12547 19.7595 7.42857 19.7595H16.5714C16.8745 19.7595 17.1652 19.6415 17.3796 19.4314C17.5939 19.2213 17.7143 18.9363 17.7143 18.6392C17.7144 17.8085 17.457 16.9974 16.9761 16.3134C16.4953 15.6293 15.8137 15.1047 15.0217 14.8091C14.8772 14.7599 14.7442 14.6828 14.6306 14.5823C14.5171 14.4818 14.4253 14.36 14.3606 14.2241C14.296 14.0882 14.2598 13.941 14.2543 13.7911C14.2488 13.6413 14.274 13.4918 14.3285 13.3517C14.383 13.2116 14.4656 13.0836 14.5715 12.9754C14.6774 12.8671 14.8043 12.7808 14.9449 12.7216C15.0854 12.6623 15.2366 12.6314 15.3896 12.6305C15.5426 12.6296 15.6942 12.6588 15.8354 12.7164C17.0601 13.1737 18.1142 13.9849 18.8579 15.0426C19.6016 16.1003 19.9999 17.3546 20 18.6392C20 19.5306 19.6388 20.3854 18.9958 21.0156C18.3528 21.6459 17.4807 22 16.5714 22H7.42857C6.51926 22 5.64719 21.6459 5.00421 21.0156C4.36122 20.3854 4 19.5306 4 18.6392V18.535C4.00016 17.2805 4.38546 16.0551 5.10578 15.0181C5.82611 13.9812 6.84812 13.1807 8.03886 12.7209ZM12 2C13.2124 2 14.3752 2.47211 15.2325 3.31247C16.0898 4.15282 16.5714 5.29259 16.5714 6.48104V8.16143C16.5714 9.34987 16.0898 10.4896 15.2325 11.33C14.3752 12.1704 13.2124 12.6425 12 12.6425C10.7876 12.6425 9.62482 12.1704 8.76751 11.33C7.9102 10.4896 7.42857 9.34987 7.42857 8.16143V6.48104C7.42857 5.29259 7.9102 4.15282 8.76751 3.31247C9.62482 2.47211 10.7876 2 12 2ZM12 4.24052C11.3938 4.24052 10.8124 4.47657 10.3838 4.89675C9.9551 5.31693 9.71429 5.88682 9.71429 6.48104V8.16143C9.71429 8.75565 9.9551 9.32554 10.3838 9.74572C10.8124 10.1659 11.3938 10.4019 12 10.4019C12.6062 10.4019 13.1876 10.1659 13.6162 9.74572C14.0449 9.32554 14.2857 8.75565 14.2857 8.16143V6.48104C14.2857 5.88682 14.0449 5.31693 13.6162 4.89675C13.1876 4.47657 12.6062 4.24052 12 4.24052Z"
        />
    </ng-container>
    
</svg>