<svg width="24" height="24" viewBox="0 0 24 24" fill="none" xmlns="http://www.w3.org/2000/svg">
<path d="M19.299 10.957L18.178 9.83601C17.9904 9.6485 17.8849 9.39413 17.8848 9.12886C17.8847 8.86359 17.99 8.60915 18.1775 8.42151C18.365 8.23387 18.6194 8.1284 18.8846 8.1283C19.1499 8.12821 19.4044 8.2335 19.592 8.42101L22.42 11.25C22.6075 11.4375 22.7128 11.6918 22.7128 11.957C22.7128 12.2222 22.6075 12.4765 22.42 12.664L19.592 15.492C19.4034 15.6742 19.1508 15.775 18.8886 15.7727C18.6264 15.7704 18.3756 15.6652 18.1902 15.4798C18.0048 15.2944 17.8996 15.0436 17.8973 14.7814C17.895 14.5192 17.9958 14.2666 18.178 14.078L19.299 12.957H12.814V19.442L13.935 18.321C14.1236 18.1388 14.3762 18.0381 14.6384 18.0403C14.9006 18.0426 15.1514 18.1478 15.3368 18.3332C15.5222 18.5186 15.6274 18.7694 15.6297 19.0316C15.632 19.2938 15.5312 19.5464 15.349 19.735L12.521 22.564C12.3335 22.7515 12.0792 22.8568 11.814 22.8568C11.5488 22.8568 11.2945 22.7515 11.107 22.564L8.278 19.735C8.09584 19.5464 7.99505 19.2938 7.99733 19.0316C7.99961 18.7694 8.10477 18.5186 8.29018 18.3332C8.47559 18.1478 8.7264 18.0426 8.9886 18.0403C9.2508 18.0381 9.5034 18.1388 9.692 18.321L10.814 19.442V12.957H4.328L5.45 14.078C5.63216 14.2666 5.73295 14.5192 5.73068 14.7814C5.7284 15.0436 5.62323 15.2944 5.43782 15.4798C5.25241 15.6652 5.0016 15.7704 4.7394 15.7727C4.47721 15.775 4.2246 15.6742 4.036 15.492L1.207 12.664C1.01953 12.4765 0.914215 12.2222 0.914215 11.957C0.914215 11.6918 1.01953 11.4375 1.207 11.25L4.036 8.42001C4.22377 8.2325 4.47834 8.12726 4.74371 8.12745C5.00907 8.12764 5.26349 8.23323 5.451 8.42101C5.63851 8.60878 5.74374 8.86335 5.74356 9.12871C5.74337 9.39408 5.63777 9.6485 5.45 9.83601L4.328 10.956H10.814V4.47301L9.692 5.59301C9.5034 5.77517 9.2508 5.87596 8.9886 5.87368C8.7264 5.8714 8.47559 5.76623 8.29018 5.58083C8.10477 5.39542 7.99961 5.1446 7.99733 4.88241C7.99505 4.62021 8.09584 4.36761 8.278 4.17901L11.107 1.35001C11.2945 1.16254 11.5488 1.05722 11.814 1.05722C12.0792 1.05722 12.3335 1.16254 12.521 1.35001L15.349 4.17901C15.4445 4.27125 15.5207 4.3816 15.5731 4.5036C15.6255 4.62561 15.6531 4.75683 15.6543 4.88961C15.6554 5.02239 15.6301 5.15407 15.5798 5.27696C15.5295 5.39986 15.4553 5.51151 15.3614 5.6054C15.2675 5.69929 15.1559 5.77355 15.033 5.82383C14.9101 5.87411 14.7784 5.89941 14.6456 5.89826C14.5128 5.8971 14.3816 5.86952 14.2596 5.81711C14.1376 5.7647 14.0272 5.68852 13.935 5.59301L12.814 4.47201V10.957H19.299Z" fill="black"/>
</svg>
