<svg width="56" height="68" viewBox="0 0 56 68" fill="none" xmlns="http://www.w3.org/2000/svg">
<path d="M36.347 31.24L37.194 29.974C37.2668 29.8661 37.3603 29.7738 37.469 29.7023C37.5777 29.6308 37.6996 29.5816 37.8274 29.5575C37.9553 29.5334 38.0867 29.5349 38.214 29.562C38.3413 29.589 38.4619 29.641 38.569 29.715C39.025 30.025 39.149 30.645 38.846 31.098L36.65 34.38C36.5772 34.4879 36.4837 34.5802 36.375 34.6517C36.2663 34.7232 36.1444 34.7724 36.0166 34.7965C35.8887 34.8206 35.7573 34.819 35.63 34.792C35.5027 34.765 35.3821 34.713 35.275 34.639L31.97 32.393C31.7511 32.2455 31.5993 32.0177 31.5474 31.7589C31.4956 31.5002 31.5479 31.2314 31.693 31.011C31.7657 30.9031 31.8591 30.8106 31.9678 30.739C32.0765 30.6675 32.1983 30.6181 32.3262 30.594C32.4541 30.5698 32.5855 30.5712 32.7128 30.5982C32.8402 30.6251 32.9609 30.6771 33.068 30.751L34.412 31.666C33.428 28.386 30.42 26 26.863 26C22.506 26 18.973 29.582 18.973 34C18.973 38.418 22.506 42 26.863 42C27.408 42 27.85 42.448 27.85 43C27.85 43.552 27.408 44 26.863 44C21.416 44 17 39.523 17 34C17 28.477 21.416 24 26.863 24C31.367 24 35.165 27.06 36.347 31.24Z" fill="#323232"/>
</svg>
