<svg xmlns="http://www.w3.org/2000/svg" width="89" height="32" viewBox="0 0 89 32" fill="none">
    <path d="M6.39844 5.15527L6.54199 13.9531C9.08496 13.8164 10.6982 12.9482 11.3818 11.3486C11.751 10.501 11.9355 9.66699 11.9355 8.84668C11.9355 8.16309 11.7988 7.48633 11.5254 6.81641C11.0469 5.6543 9.82324 5.07324 7.85449 5.07324C7.41699 5.07324 6.93164 5.10059 6.39844 5.15527ZM6.78809 18.1777V25.0479C7.10254 25.0615 7.40332 25.0684 7.69043 25.0684C10.2334 25.0684 11.8398 24.3711 12.5098 22.9766C12.8789 22.1973 13.0635 21.4932 13.0635 20.8643C13.0635 20.249 12.8857 19.709 12.5303 19.2441C11.9424 18.4922 10.5752 18.1162 8.42871 18.1162C7.92285 18.1162 7.37598 18.1367 6.78809 18.1777ZM1.12793 30.2568C1.18262 26.4424 1.20996 22.6895 1.20996 18.998C1.20996 12.627 1.12793 6.44043 0.963867 0.438477C3.28809 0.192383 5.3252 0.0693359 7.0752 0.0693359C10.2881 0.0693359 12.5166 0.486328 13.7607 1.32031C15.6748 2.60547 16.7549 4.3418 17.001 6.5293C17.0557 7.08984 17.083 7.62988 17.083 8.14941C17.083 9.63965 16.8301 10.9316 16.3242 12.0254C15.627 13.5156 14.3896 14.582 12.6123 15.2246C14.5947 15.5254 16.0166 16.2432 16.8779 17.3779C17.6025 18.335 17.9648 19.7021 17.9648 21.4795C17.9648 21.8213 17.9512 22.1768 17.9238 22.5459C17.7598 24.8701 17.0215 26.6064 15.709 27.7549C14.4102 28.9033 12.5986 29.6895 10.2744 30.1133C8.96191 30.3457 7.42383 30.4619 5.66016 30.4619C4.2793 30.4619 2.76855 30.3936 1.12793 30.2568ZM26.3115 9.91309C31.0557 9.91309 33.4277 13.0645 33.4277 19.3672C33.4277 20.1328 33.3936 20.9531 33.3252 21.8281H24.1582C24.1582 25.3418 24.835 27.0986 26.1885 27.0986H26.332C27.5215 27.0029 28.1162 26.0938 28.1162 24.3711C28.1162 24.002 28.0889 23.5918 28.0342 23.1406L32.915 23.0381C32.915 28.2471 30.6387 30.8857 26.0859 30.9541C26.0312 30.9678 25.9834 30.9746 25.9424 30.9746C21.6084 30.9746 19.4414 27.6865 19.4414 21.1104V20.4951C19.5781 13.4404 21.8682 9.91309 26.3115 9.91309ZM23.666 18.0547H28.3008V17.5625C28.3008 15.0742 27.5967 13.8301 26.1885 13.8301C24.6709 13.8301 23.8301 15.2383 23.666 18.0547ZM38.7598 9.37988L38.9648 12.7227C39.5391 10.9453 41.0498 10.043 43.4971 10.0156H43.5791C45.9854 10.0156 47.626 10.959 48.501 12.8457C49.1025 14.1309 49.4033 17.1387 49.4033 21.8691C49.4033 24.1934 49.3281 26.9414 49.1777 30.1133H44.2148C44.3926 25.8887 44.4814 22.6143 44.4814 20.29C44.4814 19.1279 44.4609 18.1982 44.4199 17.501C44.2832 15.4502 43.627 14.4248 42.4512 14.4248C41.2754 14.4248 40.5371 14.9717 40.2363 16.0654L40.4414 30.9336L35.6221 30.9746C35.6221 24.6855 35.4102 17.624 34.9863 9.79004L38.7598 9.37988ZM59.4932 22.5254L64.374 22.833C64.374 27.7686 62.0977 30.2705 57.5449 30.3389C57.4902 30.3525 57.4424 30.3594 57.4014 30.3594C53.0674 30.3594 50.9004 27.0713 50.9004 20.4951V19.8799C51.0371 12.8252 53.3477 9.26367 57.832 9.19531H57.9961C62.125 9.19531 64.1895 11.5605 64.1895 16.291C64.1895 16.5645 64.1826 16.8379 64.1689 17.1113L59.7598 17.4395V16.9473C59.7598 14.459 59.0557 13.2148 57.6475 13.2148C56.2119 13.2148 55.4941 15.2314 55.4941 19.2646V19.9414C55.5762 24.3027 56.3008 26.4834 57.668 26.4834H57.791C58.9805 26.3877 59.5752 25.4785 59.5752 23.7559C59.5752 23.3867 59.5479 22.9766 59.4932 22.5254ZM70.957 1.58691L71.1621 13.1328C71.7363 11.3555 73.0762 10.4531 75.1816 10.4258H75.2432C77.3213 10.4258 78.7979 11.3691 79.6729 13.2559C80.2744 14.541 80.5752 17.5488 80.5752 22.2793C80.5752 24.6035 80.5 27.3516 80.3496 30.5234H75.1816C75.3594 26.2988 75.4482 23.0244 75.4482 20.7002C75.4482 19.5381 75.4277 18.6084 75.3867 17.9111C75.25 15.8604 74.6621 14.835 73.623 14.835C72.584 14.835 71.9141 15.3818 71.6133 16.4756L71.8184 31.3438L66.7939 31.3848C66.7939 25.0957 66.5137 15.2314 65.9531 1.79199L70.957 1.58691ZM85.0459 31.0771C84.2256 31.0771 83.5215 30.7832 82.9336 30.1953C82.3457 29.6074 82.0518 28.9033 82.0518 28.083C82.0518 27.249 82.3457 26.5381 82.9336 25.9502C83.5215 25.3623 84.2256 25.0684 85.0459 25.0684C85.8799 25.0684 86.5908 25.3623 87.1787 25.9502C87.7666 26.5381 88.0605 27.249 88.0605 28.083C88.0605 28.9033 87.7666 29.6074 87.1787 30.1953C86.5908 30.7832 85.8799 31.0771 85.0459 31.0771ZM87.5684 2.20215C87.377 9.16113 87.2471 16.0381 87.1787 22.833L82.626 22.9355C82.4893 17.1113 82.332 10.2002 82.1543 2.20215H87.5684Z" fill="#FF6E40"/>
</svg>
